<svg version="1.1" viewBox="0.0 0.0 480.0 480.0" fill="none" stroke="none" stroke-linecap="square" stroke-miterlimit="10" xmlns:xlink="http://www.w3.org/1999/xlink" xmlns="http://www.w3.org/2000/svg"><clipPath id="p.0"><path d="m0 0l480.0 0l0 480.0l-480.0 0l0 -480.0z" clip-rule="nonzero"/></clipPath><g clip-path="url(#p.0)"><path fill="#000000" fill-opacity="0.0" d="m0 0l480.0 0l0 480.0l-480.0 0z" fill-rule="evenodd"/><path fill="#ff0000" d="m7.6082435 132.47841l0 0c0 -29.62236 24.013666 -53.636024 53.63603 -53.636024l357.50925 0c14.225159 0 27.867706 5.6509247 37.92639 15.709633c10.058716 10.058701 15.709625 23.701233 15.709625 37.92639l0 214.53767c0 29.622345 -24.013641 53.636017 -53.636017 53.636017l-357.50925 0c-29.62236 0 -53.63603 -24.013672 -53.63603 -53.636017z" fill-rule="evenodd"/><path fill="#ff0000" d="m45.646893 83.91821c0 -4.4951706 20.476315 -8.806229 56.92438 -11.984795c36.448074 -3.178566 85.88226 -4.964264 137.42761 -4.964264l0 0c107.33766 0 194.352 7.5883484 194.352 16.949059l0 0c0 9.3607025 -87.01434 16.94905 -194.352 16.94905l0 0c-107.33765 0 -194.35199 -7.5883484 -194.35199 -16.94905z" fill-rule="evenodd"/><path fill="#ff0000" d="m45.646893 396.0818c0 -4.495178 20.476315 -8.806213 56.92438 -11.984772c36.448074 -3.1785889 85.88226 -4.964264 137.42761 -4.964264l0 0c107.33766 0 194.352 7.5883484 194.352 16.949036l0 0c0 9.360718 -87.01434 16.949066 -194.352 16.949066l0 0c-107.33765 0 -194.35199 -7.5883484 -194.35199 -16.949066z" fill-rule="evenodd"/><path fill="#ff0000" d="m-0.003922844 239.74725l0 0c0 -70.15924 6.05749 -127.034546 13.529782 -127.034546l0 0c3.5883217 0 7.0296745 13.383957 9.567001 37.20755c2.537325 23.823608 3.96278 56.13533 3.96278 89.826996l0 0c0 70.15924 -6.0574894 127.034546 -13.529781 127.034546l0 0c-3.5883217 0 -7.0296745 -13.383972 -9.567001 -37.20758c-2.5373263 -23.823578 -3.9627817 -56.135315 -3.9627817 -89.826965z" fill-rule="evenodd"/><path fill="#ff0000" d="m452.94437 239.74725l0 0c0 -70.15924 6.057495 -127.034546 13.529785 -127.034546l0 0c3.5883179 0 7.029663 13.383957 9.566986 37.20755c2.537323 23.823608 3.962799 56.13533 3.962799 89.826996l0 0c0 70.15924 -6.057495 127.034546 -13.529785 127.034546l0 0c-3.5883179 0 -7.0296936 -13.383972 -9.567017 -37.20758c-2.537323 -23.823578 -3.9627686 -56.135315 -3.9627686 -89.826965z" fill-rule="evenodd"/><path fill="#ffffff" d="m209.10706 133.20024l182.005 106.79976l-182.005 106.79974z" fill-rule="evenodd"/><path fill="#ffffff" d="m136.88795 133.20024l38.04724 0l0 213.60631l-38.04724 0z" fill-rule="evenodd"/></g></svg>