<svg version="1.1" viewBox="0.0 0.0 480.0 480.0" fill="none" stroke="none" stroke-linecap="square" stroke-miterlimit="10" xmlns:xlink="http://www.w3.org/1999/xlink" xmlns="http://www.w3.org/2000/svg"><clipPath id="p.0"><path d="m0 0l480.0 0l0 480.0l-480.0 0l0 -480.0z" clip-rule="nonzero"/></clipPath><g clip-path="url(#p.0)"><path fill="#000000" fill-opacity="0.0" d="m0 0l480.0 0l0 480.0l-480.0 0z" fill-rule="evenodd"/><path fill="#ff0000" d="m7.68 116.093796l0 0c0 -34.215088 27.736809 -61.951897 61.951897 -61.951897l340.72614 0c16.430664 0 32.188354 6.5270576 43.80661 18.145294c11.618225 11.618233 18.145264 27.375938 18.145264 43.806602l0 247.80016c0 34.215088 -27.736786 61.951874 -61.951874 61.951874l-340.72614 0l0 0c-34.215088 0 -61.951897 -27.736786 -61.951897 -61.951874z" fill-rule="evenodd"/><path fill="#ff0000" d="m1.6692914E-8 239.7141l0 0c0 -77.84935 5.5916657 -140.95872 12.489335 -140.95872l0 0c3.312378 0 6.489089 14.850967 8.831294 41.28586c2.342205 26.43489 3.658041 62.288284 3.658041 99.67287l0 0c0 77.84935 -5.5916653 140.95872 -12.489335 140.95872l0 0c-3.312377 0 -6.4890885 -14.850983 -8.831293 -41.28586c-2.3422048 -26.434906 -3.6580417 -62.2883 -3.6580417 -99.67287z" fill-rule="evenodd"/><path fill="#ff0000" d="m455.02362 239.64967l0 0c0 -77.85214 5.591156 -140.96378 12.48819 -140.96378l0 0c3.3120728 0 6.488495 14.851501 8.830475 41.28734c2.3420105 26.435837 3.6577148 62.290527 3.6577148 99.67644l0 0c0 77.85216 -5.591156 140.96379 -12.48819 140.96379l0 0c-3.3120728 0 -6.488495 -14.851501 -8.830475 -41.287354c-2.3420105 -26.435822 -3.6577148 -62.290527 -3.6577148 -99.67644z" fill-rule="evenodd"/><path fill="#ff0000" d="m55.19685 57.69827l0 0c0 -2.9269905 19.47028 -5.7340965 54.12759 -7.803787c34.65731 -2.0696945 81.66271 -3.2324333 130.67557 -3.2324333l0 0c102.063965 0 184.80316 4.941082 184.80316 11.036221l0 0c0 6.0951347 -82.7392 11.036221 -184.80316 11.036221l0 0c-102.063965 0 -184.80315 -4.941086 -184.80315 -11.036221z" fill-rule="evenodd"/><path fill="#ff0000" d="m55.19685 422.4l0 0c0 -2.927826 19.47028 -5.735718 54.12759 -7.8059998c34.65731 -2.070282 81.66271 -3.233368 130.67557 -3.233368l0 0c102.063965 0 184.80316 4.942505 184.80316 11.039368l0 0c0 6.0968933 -82.7392 11.039368 -184.80316 11.039368l0 0c-102.063965 0 -184.80315 -4.9424744 -184.80315 -11.039368z" fill-rule="evenodd"/><path fill="#ffffff" d="m183.84845 121.96116l249.83826 118.03509l-249.83826 118.035095z" fill-rule="evenodd"/><path fill="#ffffff" d="m84.71329 121.96116l52.227448 0l0 236.0777l-52.227448 0z" fill-rule="evenodd"/></g></svg>