<svg version="1.1" viewBox="0.0 0.0 192.0 192.0" fill="none" stroke="none" stroke-linecap="square" stroke-miterlimit="10" xmlns:xlink="http://www.w3.org/1999/xlink" xmlns="http://www.w3.org/2000/svg"><clipPath id="p.0"><path d="m0 0l192.0 0l0 192.0l-192.0 0l0 -192.0z" clip-rule="nonzero"/></clipPath><g clip-path="url(#p.0)"><path fill="#000000" fill-opacity="0.0" d="m0 0l192.0 0l0 192.0l-192.0 0z" fill-rule="evenodd"/><path fill="#000000" fill-opacity="0.0" d="m9.606299 96.0l0 0c0 -22.913033 9.102168 -44.88761 25.304127 -61.089573c16.201962 -16.20196 38.17654 -25.304127 61.089573 -25.304127l0 86.3937z" fill-rule="evenodd"/><path fill="#000000" fill-opacity="0.0" d="m9.606299 96.0l0 0c0 -22.913033 9.102168 -44.88761 25.304127 -61.089573c16.201962 -16.20196 38.17654 -25.304127 61.089573 -25.304127" fill-rule="evenodd"/><path stroke="#ffdf00" stroke-width="12.0" stroke-linejoin="round" stroke-linecap="butt" d="m9.606299 96.0l0 0c0 -22.913033 9.102168 -44.88761 25.304127 -61.089573c2.0252457 -2.0252419 4.140686 -3.9395542 6.3368874 -5.7390213c1.0980949 -0.8997326 2.216385 -1.7707539 3.3536835 -2.6125755l0.10395813 -0.07596779" fill-rule="evenodd"/><path fill="#ffdf00" stroke="#ffdf00" stroke-width="12.0" stroke-linecap="butt" d="m48.852005 39.087505l30.483917 -23.998566l-38.778015 -1.2107191z" fill-rule="evenodd"/><path fill="#000000" fill-opacity="0.0" d="m182.3937 96.0l0 0c0 22.913033 -9.102173 44.887604 -25.304138 61.08957c-16.201965 16.201965 -38.176537 25.304138 -61.08957 25.304138l0 -86.39371z" fill-rule="evenodd"/><path fill="#000000" fill-opacity="0.0" d="m182.3937 96.0l0 0c0 22.913033 -9.102173 44.887604 -25.304138 61.08957c-16.201965 16.201965 -38.176537 25.304138 -61.08957 25.304138" fill-rule="evenodd"/><path stroke="#ffdf00" stroke-width="12.0" stroke-linejoin="round" stroke-linecap="butt" d="m182.3937 96.0l0 0c0 22.91304 -9.102158 44.887604 -25.304138 61.08957c-2.025238 2.025238 -4.140686 3.93956 -6.3368835 5.739029c-1.0980988 0.8997345 -2.216385 1.770752 -3.3536835 2.6125793l-0.10395813 0.07595825" fill-rule="evenodd"/><path fill="#ffdf00" stroke="#ffdf00" stroke-width="12.0" stroke-linecap="butt" d="m143.148 152.91249l-30.483925 23.998566l38.778023 1.2107239z" fill-rule="evenodd"/></g></svg>